{"title":"Helix S01E09 HDTV x264 AAC [GWC].mp4","uid":9680535,"size":121946095,"categoryP":"video","categoryS":"tv_shows","magnet":"?xt=urn:btih:28318fa84fad20d7115e18410c7d49097e141425&amp;dn=Helix+S01E09+HDTV+x264+AAC+%5BGWC%5D.mp4&amp;tr=udp%3A%2F%2Ftracker.openbittorrent.com%3A80&amp;tr=udp%3A%2F%2Fopen.demonii.com%3A1337&amp;tr=udp%3A%2F%2Ftracker.coppersurfer.tk%3A6969&amp;tr=udp%3A%2F%2Fexodus.desync.com%3A6969","seeders":1,"leechers":0,"uploader":"canc232","files":1,"time":1393662165,"description":"Helix S01E09 HDTV x264 AAC [GWC] \n\n\nStoryline\n\nA team of scientists are thrust into a potentially life-or-death situation in this thriller, which begins with the group being deployed to the Arctic to secretly investigate what could be a disease outbreak.\n\n\nSCREENS : &lt;a href=&quot;\nhttp://i.imgur.com/C0HxQXf.jpg&quot; rel=&quot;nofollow&quot; target=&quot;_NEW&quot;&gt;\nhttp://i.imgur.com/C0HxQXf.jpg&lt;/a&gt; &lt;a href=&quot;\nhttp://i.imgur.com/F3MRZql.jpg&quot; rel=&quot;nofollow&quot; target=&quot;_NEW&quot;&gt;\nhttp://i.imgur.com/F3MRZql.jpg&lt;/a&gt; &lt;a href=&quot;\nhttp://i.imgur.com/Rw8FNgC.jpg&quot; rel=&quot;nofollow&quot; target=&quot;_NEW&quot;&gt;\nhttp://i.imgur.com/Rw8FNgC.jpg&lt;/a&gt;\n\n\nMEDIA INFO :\nGeneral \nFormat : MPEG-4 \nFormat profile : Base Media \nFile size : 116 MiB \nDuration : 39mn 3s \nOverall bit rate : 416 Kbps \n\nVideo \nFormat : AVC \nFormat profile : &lt;a class=&quot;__cf_email__&quot; href=&quot;/cdn-cgi/l/email-protection&quot; data-cfemail=&quot;044c6d636c4448372a34&quot;&gt;[email&amp;#160;protected]&lt;/a&gt;&lt;script cf-hash='f9e31' type=&quot;text/javascript&quot;&gt;\n/* &lt;![CDATA[ */!function(){try{var t=&quot;currentScript&quot;in document?document.currentScript:function(){for(var t=document.getElementsByTagName(&quot;script&quot;),e=t.length;e--;)if(t[e].getAttribute(&quot;cf-hash&quot;))return t[e]}();if(t&amp;&amp;t.previousSibling){var e,r,n,i,c=t.previousSibling,a=c.getAttribute(&quot;data-cfemail&quot;);if(a){for(e=&quot;&quot;,r=parseInt(a.substr(0,2),16),n=2;a.length-n;n+=2)i=parseInt(a.substr(n,2),16)^r,e+=String.fromCharCode(i);e=document.createTextNode(e),c.parentNode.replaceChild(e,c)}}}catch(u){}}();/* ]]&gt; */&lt;/script&gt; \nFormat settings, CABAC : Yes \nFormat settings, ReFrames : 4 frames \nDuration : 39mn 3s \nBit rate : 353 Kbps \nMaximum bit rate : 877 Kbps \nWidth : 720 pixels \nHeight : 404 pixels \nFrame rate mode : Constant \nFrame rate : 23.976 fps \nStream size : 98.7 MiB (85%) \nTitle : Helix S01E09 HDTV x264 AAC [GWC] \nWriting library : x264 core \n\nAudio \nFormat : AAC \nFormat profile : HE-AAC / LC \nDuration : 39mn 3s \nBit rate mode : Variable \nChannel(s) : 2 channels \nSampling rate : 48.0 KHz / 24.0 KHz \nStream size : 16.8 MiB (14%) \nLanguage : English \n\n\nI really wish the group EXCELLENCE-REMARKABLE stops uploading tv shows. Half of them are out of sync and the remaining half are...well just not good!","torrent":{"xt":"urn:btih:28318fa84fad20d7115e18410c7d49097e141425","amp;dn":"Helix+S01E09+HDTV+x264+AAC+%5BGWC%5D.mp4","amp;tr":["udp%3A%2F%2Ftracker.openbittorrent.com%3A80","udp%3A%2F%2Fopen.demonii.com%3A1337","udp%3A%2F%2Ftracker.coppersurfer.tk%3A6969","udp%3A%2F%2Fexodus.desync.com%3A6969"],"infoHash":"28318fa84fad20d7115e18410c7d49097e141425","infoHashBuffer":{"type":"Buffer","data":[40,49,143,168,79,173,32,215,17,94,24,65,12,125,73,9,126,20,20,37]},"announce":[],"urlList":[]}}